<svg width="256" height="256" viewBox="0 0 64 64" fill="none" xmlns="http://www.w3.org/2000/svg">
  <path d="M32 4L56 14V32C56 46 44.8 59 32 64C19.2 59 8 46 8 32V14L32 4Z" fill="#1E73DA"/>
  <path d="M32 4L8 14V32C8 46 19.2 59 32 64V4Z" fill="#1C6CCB"/>
  <path d="M20 33.2 32 24l12 9.2v12.8c0 1.1-.9 2-2 2H22c-1.1 0-2-.9-2-2V33.2Z" fill="#0B2B5E"/>
  <path d="M18 34.5 32 23l14 11.5" stroke="#0B2B5E" stroke-width="3" stroke-linecap="round" stroke-linejoin="round"/>
  <rect x="28.5" y="35.5" width="4.6" height="4.6" rx="0.7" fill="#1E73DA"/>
  <rect x="28.5" y="42.1" width="4.6" height="4.6" rx="0.7" fill="#1E73DA"/>
  <rect x="35.1" y="35.5" width="4.6" height="4.6" rx="0.7" fill="#1E73DA"/>
</svg>
