<?xml version="1.0" encoding="utf-8"?>
<!-- TenantShield custom shield logo: blue shield with house inside -->
<svg xmlns="http://www.w3.org/2000/svg" viewBox="0 0 512 512" width="512" height="512" role="img" aria-label="TenantShield logo">
	<defs>
		<linearGradient id="g" x1="0%" x2="100%" y1="0%" y2="100%">
			<stop offset="0%" stop-color="#2f8ff6" />
			<stop offset="100%" stop-color="#1e63d8" />
		</linearGradient>
	</defs>
	<!-- outer shield -->
	<path fill="url(#g)" d="M256 16c0 0 160 64 160 160 0 160-160 272-160 272S96 336 96 176C96 80 256 16 256 16z" />
	<!-- subtle vertical split highlight -->
	<path fill="#ffffff" opacity="0.06" d="M256 16v432s-64-48-96-128c24 64 96 128 96 128V16z" />
	<!-- house icon -->
	<g transform="translate(0,18)" fill="#ffffff">
		<path d="M160 216v-64l96-64 96 64v64" fill-opacity="0.95" />
		<rect x="216" y="176" width="80" height="56" rx="6" ry="6" fill-opacity="0.95" />
		<path d="M160 216c0 0 16 16 16 40v32h160v-32c0-24 16-40 16-40" fill-opacity="0.06" />
		<!-- rounded base / border to suggest house outline -->
		<path d="M176 272v24a8 8 0 0 0 8 8h144a8 8 0 0 0 8-8v-24" fill-opacity="0.08" />
	</g>
</svg>